<svg xmlns="http://www.w3.org/2000/svg" xmlns:xlink="http://www.w3.org/1999/xlink" width="1587" zoomAndPan="magnify" viewBox="0 0 1190.25 1683.749945" height="2245" preserveAspectRatio="xMidYMid meet" version="1.0"><defs><clipPath id="cab502a9aa"><path d="M 966.746094 1131.671875 L 1103.449219 1131.671875 L 1103.449219 1356.734375 L 966.746094 1356.734375 Z M 966.746094 1131.671875 " clip-rule="nonzero"/></clipPath><clipPath id="19c7f9d298"><path d="M 966.964844 1148.382812 C 966.964844 1148.382812 967.265625 1146.957031 967.414062 1146.28125 C 967.566406 1145.535156 967.863281 1144.109375 967.863281 1144.109375 C 967.941406 1144.109375 968.539062 1142.835938 968.839844 1142.160156 C 969.140625 1141.484375 969.8125 1140.210938 969.8125 1140.210938 C 969.8125 1140.136719 970.714844 1139.085938 971.238281 1138.488281 C 971.6875 1137.964844 972.585938 1136.839844 972.585938 1136.839844 C 972.660156 1136.765625 973.785156 1135.941406 974.386719 1135.488281 C 974.984375 1135.113281 976.109375 1134.214844 976.109375 1134.214844 C 976.183594 1134.214844 977.460938 1133.691406 978.132812 1133.390625 C 978.808594 1133.089844 980.15625 1132.566406 980.15625 1132.566406 C 980.230469 1132.566406 981.582031 1132.34375 982.332031 1132.191406 C 983.082031 1132.117188 984.429688 1131.890625 984.503906 1131.890625 C 984.503906 1131.890625 985.929688 1132.042969 986.679688 1132.117188 C 987.429688 1132.117188 988.851562 1132.265625 988.851562 1132.265625 C 988.851562 1132.265625 990.199219 1132.714844 990.949219 1133.015625 C 991.625 1133.242188 992.972656 1133.691406 992.972656 1133.691406 C 992.972656 1133.691406 994.171875 1134.515625 994.847656 1134.890625 C 995.449219 1135.265625 996.648438 1136.089844 996.648438 1136.089844 C 996.648438 1136.089844 997.621094 1137.140625 998.144531 1137.664062 C 998.671875 1138.1875 999.644531 1139.238281 999.644531 1139.238281 C 999.644531 1139.3125 1000.394531 1140.511719 1000.695312 1141.1875 C 1001.070312 1141.785156 1001.820312 1143.058594 1001.820312 1143.058594 C 1001.820312 1143.058594 1002.195312 1144.484375 1002.417969 1145.160156 C 1002.566406 1145.832031 1002.941406 1147.257812 1003.019531 1147.257812 C 1003.019531 1147.332031 1010.0625 1160.148438 1013.585938 1167.792969 C 1017.859375 1176.9375 1023.253906 1189.679688 1026.402344 1198.449219 C 1028.652344 1204.820312 1029.925781 1210.21875 1031.425781 1215.164062 C 1032.625 1219.136719 1032.101562 1223.859375 1034.722656 1225.882812 C 1038.097656 1228.355469 1046.867188 1223.484375 1051.886719 1226.109375 C 1058.257812 1229.480469 1062.679688 1241.324219 1067.550781 1248.445312 C 1071.898438 1254.816406 1076.320312 1261.410156 1079.695312 1266.730469 C 1082.167969 1270.78125 1084.941406 1275.351562 1085.914062 1277.449219 C 1086.289062 1278.273438 1086.289062 1278.648438 1086.589844 1279.175781 C 1086.816406 1279.773438 1087.265625 1280.375 1087.414062 1280.898438 C 1087.488281 1281.273438 1087.488281 1281.496094 1087.566406 1281.796875 C 1087.640625 1282.097656 1087.789062 1282.324219 1087.863281 1282.695312 C 1087.9375 1283.222656 1087.863281 1283.972656 1087.9375 1284.570312 C 1087.9375 1285.246094 1088.164062 1285.921875 1088.164062 1286.445312 C 1088.164062 1286.820312 1088.015625 1287.042969 1088.015625 1287.34375 C 1087.9375 1287.644531 1088.089844 1287.945312 1088.015625 1288.320312 C 1087.9375 1288.84375 1087.640625 1289.519531 1087.488281 1290.117188 C 1087.339844 1290.71875 1087.265625 1291.464844 1087.113281 1291.917969 C 1086.964844 1292.292969 1086.738281 1292.515625 1086.664062 1292.742188 C 1086.515625 1293.039062 1086.515625 1293.339844 1086.367188 1293.640625 C 1086.140625 1294.164062 1085.617188 1294.691406 1085.242188 1295.214844 C 1084.941406 1295.738281 1084.640625 1296.414062 1084.339844 1296.863281 C 1084.117188 1297.089844 1083.890625 1297.238281 1083.667969 1297.460938 C 1083.441406 1297.6875 1083.292969 1298.0625 1083.140625 1298.210938 C 1082.992188 1298.363281 1082.769531 1298.363281 1082.769531 1298.4375 C 1082.769531 1299.035156 1087.191406 1300.984375 1089.738281 1303.007812 C 1093.636719 1306.230469 1102.554688 1310.878906 1103.230469 1316.425781 C 1104.128906 1323.320312 1094.609375 1337.113281 1087.863281 1342.210938 C 1082.316406 1346.480469 1074.074219 1345.882812 1067.777344 1347.605469 C 1062.082031 1349.179688 1056.984375 1350.753906 1051.664062 1352.101562 C 1046.492188 1353.453125 1039.820312 1355.25 1036.371094 1355.851562 C 1034.648438 1356.152344 1033.824219 1356.300781 1032.472656 1356.300781 C 1031.199219 1356.300781 1029.925781 1356.152344 1028.652344 1355.777344 C 1027.378906 1355.476562 1026.179688 1355.027344 1025.054688 1354.425781 C 1023.855469 1353.828125 1022.804688 1353.003906 1021.832031 1352.179688 C 1020.855469 1351.277344 1020.03125 1350.304688 1019.28125 1349.253906 C 1018.53125 1348.207031 1017.933594 1347.007812 1017.484375 1345.808594 C 1017.035156 1344.609375 1016.734375 1343.257812 1016.585938 1341.984375 C 1016.433594 1340.710938 1016.433594 1339.4375 1016.585938 1338.164062 C 1016.734375 1336.8125 1017.109375 1335.539062 1017.558594 1334.339844 C 1018.007812 1333.140625 1018.683594 1331.941406 1019.359375 1330.890625 C 1020.105469 1329.84375 1021.007812 1328.867188 1021.980469 1328.042969 C 1022.957031 1327.21875 1024.078125 1326.394531 1025.203125 1325.871094 C 1026.328125 1325.269531 1027.152344 1324.96875 1028.875 1324.519531 C 1032.175781 1323.472656 1041.84375 1321.449219 1044.09375 1320.847656 C 1044.765625 1320.699219 1045.140625 1320.847656 1045.367188 1320.472656 C 1045.816406 1319.574219 1043.34375 1314.550781 1042.667969 1313.128906 C 1042.441406 1312.527344 1042.21875 1312.304688 1041.992188 1311.929688 C 1041.769531 1311.628906 1041.617188 1311.328125 1041.320312 1311.027344 C 1041.09375 1310.804688 1040.945312 1310.804688 1040.496094 1310.429688 C 1038.84375 1309.082031 1032.847656 1302.859375 1028.800781 1299.335938 C 1024.679688 1295.890625 1019.957031 1293.789062 1015.984375 1289.441406 C 1011.039062 1284.195312 1005.792969 1275.800781 1002.492188 1269.28125 C 999.71875 1263.882812 998.597656 1258.710938 996.570312 1253.539062 C 994.625 1248.519531 992.300781 1243.722656 990.425781 1238.625 C 988.476562 1233.453125 986.753906 1228.207031 985.253906 1222.660156 C 983.679688 1216.8125 982.855469 1210.21875 981.207031 1204.445312 C 979.632812 1198.976562 977.460938 1194.027344 975.660156 1188.855469 C 973.9375 1183.683594 971.988281 1178.738281 970.636719 1173.339844 C 969.214844 1167.71875 968.015625 1159.023438 967.492188 1155.652344 C 967.265625 1154.304688 967.191406 1153.628906 967.117188 1152.730469 C 967.039062 1151.980469 967.039062 1151.304688 967.039062 1150.554688 C 967.039062 1149.878906 966.964844 1148.382812 966.964844 1148.382812 M 1028.800781 1324.519531 C 1028.875 1324.519531 1028.875 1324.519531 1028.875 1324.519531 C 1028.875 1324.519531 1028.800781 1324.519531 1028.800781 1324.519531 " clip-rule="nonzero"/></clipPath><clipPath id="d2676d1a8a"><path d="M 939.132812 1143.035156 L 1057 1143.035156 L 1057 1352 L 939.132812 1352 Z M 939.132812 1143.035156 " clip-rule="nonzero"/></clipPath><clipPath id="3a8f8942f4"><path d="M 939.234375 1182.183594 C 944.855469 1166.671875 945.527344 1167.195312 945.605469 1167.121094 C 945.605469 1167.046875 945.453125 1166.894531 945.453125 1166.894531 C 945.453125 1166.894531 945.003906 1165.695312 944.78125 1165.019531 C 944.554688 1164.421875 944.105469 1163.222656 944.105469 1163.222656 C 944.105469 1163.148438 943.957031 1161.875 943.878906 1161.199219 C 943.804688 1160.597656 943.65625 1159.324219 943.65625 1159.25 C 943.65625 1159.25 943.878906 1157.976562 943.957031 1157.300781 C 944.03125 1156.625 944.179688 1155.351562 944.179688 1155.351562 C 944.253906 1155.351562 944.703125 1154.078125 944.929688 1153.480469 C 945.15625 1152.878906 945.679688 1151.679688 945.679688 1151.679688 C 945.679688 1151.605469 946.429688 1150.554688 946.804688 1150.03125 C 947.179688 1149.507812 947.925781 1148.457031 947.925781 1148.457031 C 948.003906 1148.382812 948.976562 1147.558594 949.425781 1147.109375 C 949.953125 1146.734375 950.925781 1145.832031 950.925781 1145.832031 C 951 1145.832031 952.125 1145.234375 952.726562 1144.933594 C 953.324219 1144.632812 954.449219 1144.035156 954.449219 1144.035156 C 954.523438 1144.035156 955.722656 1143.734375 956.398438 1143.585938 C 957.070312 1143.433594 958.269531 1143.136719 958.347656 1143.136719 C 958.347656 1143.136719 959.621094 1143.136719 960.292969 1143.210938 C 960.96875 1143.210938 962.242188 1143.210938 962.242188 1143.210938 C 962.320312 1143.210938 962.320312 1143.210938 962.320312 1143.210938 C 962.320312 1143.210938 963.59375 1143.511719 964.191406 1143.660156 C 964.867188 1143.882812 966.066406 1144.183594 966.140625 1144.183594 C 966.140625 1144.183594 967.265625 1144.859375 967.863281 1145.160156 C 968.464844 1145.457031 969.589844 1146.058594 969.589844 1146.058594 C 969.589844 1146.058594 970.5625 1146.957031 971.089844 1147.40625 C 971.539062 1147.855469 972.511719 1148.679688 972.511719 1148.757812 C 972.511719 1148.757812 973.261719 1149.804688 973.636719 1150.40625 C 974.011719 1150.929688 974.6875 1151.980469 974.761719 1152.054688 C 974.761719 1152.128906 980.757812 1163.898438 984.054688 1171.015625 C 988.175781 1180.011719 994.921875 1195.976562 997.394531 1201.824219 C 998.445312 1204.148438 998.671875 1204.972656 999.496094 1206.695312 C 1000.46875 1208.644531 1001.667969 1210.292969 1003.167969 1212.839844 C 1005.492188 1217.039062 1009.390625 1224.160156 1012.085938 1229.707031 C 1014.636719 1234.953125 1018.984375 1245.296875 1019.058594 1245.371094 C 1019.058594 1245.371094 1019.507812 1246.570312 1019.730469 1247.167969 C 1019.957031 1247.84375 1020.480469 1249.042969 1020.480469 1249.042969 C 1020.480469 1249.042969 1020.632812 1250.390625 1020.707031 1250.992188 C 1020.78125 1251.515625 1020.632812 1251.816406 1020.933594 1252.566406 C 1021.832031 1254.738281 1030 1264.859375 1030 1264.859375 C 1030 1264.859375 1030.675781 1266.058594 1030.976562 1266.582031 C 1031.273438 1267.183594 1031.949219 1268.382812 1031.949219 1268.382812 C 1031.949219 1268.382812 1032.324219 1269.65625 1032.550781 1270.328125 C 1032.699219 1271.003906 1033.074219 1272.277344 1033.074219 1272.277344 C 1033.074219 1272.277344 1033.074219 1273.628906 1033.148438 1274.300781 C 1033.148438 1274.976562 1033.148438 1276.324219 1033.148438 1276.324219 C 1033.148438 1276.402344 1032.925781 1277.675781 1032.773438 1278.351562 C 1032.625 1278.949219 1032.324219 1280.296875 1032.324219 1280.296875 C 1032.324219 1280.296875 1031.726562 1281.496094 1031.425781 1282.097656 C 1031.125 1282.773438 1030.601562 1283.894531 1030.527344 1283.972656 C 1030.527344 1283.972656 1029.699219 1285.019531 1029.25 1285.546875 C 1028.800781 1285.996094 1027.976562 1287.042969 1027.976562 1287.042969 C 1027.902344 1287.121094 1026.851562 1287.867188 1026.328125 1288.242188 C 1025.804688 1288.695312 1024.679688 1289.441406 1024.679688 1289.441406 C 1024.679688 1289.519531 1023.554688 1289.59375 1023.480469 1289.96875 C 1023.03125 1291.542969 1030.527344 1299.9375 1034.871094 1305.332031 C 1040.121094 1311.777344 1050.089844 1321.746094 1053.160156 1325.644531 C 1054.285156 1327.144531 1054.660156 1327.667969 1055.261719 1328.792969 C 1055.785156 1329.992188 1056.234375 1331.191406 1056.535156 1332.390625 C 1056.835938 1333.664062 1056.984375 1334.9375 1056.910156 1336.214844 C 1056.910156 1337.488281 1056.683594 1338.761719 1056.382812 1339.960938 C 1056.085938 1341.234375 1055.558594 1342.433594 1054.960938 1343.558594 C 1054.359375 1344.609375 1053.609375 1345.734375 1052.710938 1346.632812 C 1051.886719 1347.53125 1050.914062 1348.429688 1049.863281 1349.105469 C 1048.8125 1349.78125 1047.613281 1350.378906 1046.414062 1350.828125 C 1045.214844 1351.277344 1043.941406 1351.503906 1042.742188 1351.652344 C 1041.46875 1351.804688 1040.121094 1351.730469 1038.921875 1351.578125 C 1037.644531 1351.429688 1036.371094 1351.054688 1035.246094 1350.605469 C 1034.046875 1350.15625 1032.925781 1349.480469 1031.875 1348.804688 C 1030.824219 1348.054688 1030.300781 1347.53125 1029.027344 1346.183594 C 1025.652344 1342.585938 1016.882812 1331.117188 1011.863281 1324.96875 C 1007.964844 1320.171875 1005.339844 1317.25 1001.519531 1312.152344 C 996.347656 1305.109375 989.078125 1294.316406 983.980469 1286.445312 C 979.78125 1279.847656 976.558594 1273.777344 972.960938 1268.007812 C 969.8125 1262.910156 966.664062 1258.636719 963.59375 1253.691406 C 960.445312 1248.59375 954.671875 1242.597656 954.296875 1238.023438 C 954.074219 1234.800781 957.894531 1231.355469 957.597656 1229.40625 C 957.523438 1228.28125 956.773438 1228.132812 955.949219 1226.933594 C 953.847656 1223.785156 944.929688 1209.691406 944.78125 1209.542969 C 944.78125 1209.46875 944.105469 1208.417969 943.730469 1207.820312 C 943.429688 1207.21875 942.757812 1206.09375 942.757812 1206.09375 C 942.679688 1206.09375 942.304688 1204.820312 942.15625 1204.148438 C 941.929688 1203.546875 941.558594 1202.273438 941.558594 1202.273438 C 941.558594 1202.199219 941.480469 1200.921875 941.40625 1200.25 C 941.40625 1199.574219 941.332031 1198.226562 941.332031 1198.226562 C 941.332031 1198.226562 941.558594 1196.953125 941.632812 1196.277344 C 941.78125 1195.601562 942.007812 1194.328125 942.007812 1194.253906 C 942.007812 1194.253906 942.605469 1193.578125 942.679688 1192.902344 C 942.757812 1191.03125 939.234375 1182.183594 939.234375 1182.183594 " clip-rule="nonzero"/></clipPath><clipPath id="afa1b1902d"><path d="M 756.71875 946 L 1112 946 L 1112 1280.476562 L 756.71875 1280.476562 Z M 756.71875 946 " clip-rule="nonzero"/></clipPath><clipPath id="5ca66837a5"><path d="M 756.722656 1240.125 C 756.722656 1240.125 756.949219 1238.699219 757.023438 1238.023438 C 757.097656 1237.351562 757.324219 1235.925781 757.324219 1235.925781 C 757.324219 1235.925781 757.847656 1234.578125 758.074219 1233.976562 C 758.371094 1233.304688 758.523438 1232.855469 758.898438 1231.953125 C 759.496094 1230.53125 760.097656 1228.132812 761.519531 1225.882812 C 763.695312 1222.433594 767.742188 1217.636719 771.789062 1213.890625 C 776.0625 1209.917969 781.382812 1206.84375 786.703125 1203.023438 C 792.851562 1198.675781 800.570312 1193.203125 806.566406 1189.230469 C 811.363281 1186.007812 815.1875 1184.285156 819.910156 1180.835938 C 825.980469 1176.414062 832.574219 1169.894531 839.621094 1164.273438 C 847.191406 1158.125 856.785156 1150.40625 864.054688 1145.535156 C 869.453125 1141.9375 873.351562 1138.789062 878.820312 1137.0625 C 884.667969 1135.191406 892.613281 1134.140625 898.308594 1135.265625 C 903.332031 1136.238281 909.476562 1141.710938 911.652344 1142.160156 C 912.324219 1142.3125 913 1142.085938 913 1142.085938 C 913 1142.085938 914.421875 1142.3125 915.097656 1142.460938 C 915.847656 1142.609375 917.273438 1142.835938 917.273438 1142.835938 C 917.273438 1142.835938 918.246094 1143.511719 918.847656 1143.585938 C 919.746094 1143.660156 921.621094 1143.433594 922.144531 1142.683594 C 922.742188 1141.785156 920.945312 1139.386719 921.695312 1138.113281 C 922.820312 1136.238281 929.265625 1136.089844 930.6875 1134.214844 C 931.738281 1133.015625 932.261719 1130.84375 931.589844 1129.867188 C 930.761719 1128.59375 926.191406 1128.820312 924.691406 1128.445312 C 924.019531 1128.292969 923.71875 1128.144531 923.191406 1127.996094 C 922.59375 1127.769531 921.917969 1127.542969 921.246094 1127.320312 C 920.644531 1127.09375 919.445312 1126.71875 919.371094 1126.71875 C 919.371094 1126.71875 918.246094 1125.972656 917.722656 1125.597656 C 917.195312 1125.296875 916.074219 1124.546875 916.074219 1124.546875 C 915.996094 1124.546875 915.097656 1123.574219 914.648438 1123.121094 C 914.199219 1122.597656 913.300781 1121.699219 913.300781 1121.625 C 913.300781 1121.625 912.625 1120.5 912.324219 1119.898438 C 912.023438 1119.375 911.351562 1118.25 911.351562 1118.175781 C 911.351562 1118.175781 910.976562 1116.902344 910.824219 1116.300781 C 910.601562 1115.628906 910.300781 1114.351562 910.300781 1114.351562 C 910.226562 1114.351562 910.226562 1113.003906 910.226562 1112.40625 C 910.152344 1111.730469 910.152344 1110.378906 910.152344 1110.378906 C 910.152344 1110.378906 910.375 1109.105469 910.527344 1108.433594 C 910.675781 1107.757812 910.976562 1106.484375 910.976562 1106.484375 C 910.976562 1106.484375 911.574219 1105.285156 911.800781 1104.683594 C 912.101562 1104.085938 912.699219 1102.960938 912.699219 1102.886719 C 912.699219 1102.886719 913.523438 1101.910156 913.972656 1101.386719 C 914.421875 1100.863281 915.25 1099.886719 915.25 1099.8125 C 915.25 1099.8125 916.296875 1099.0625 916.820312 1098.6875 C 917.347656 1098.238281 918.394531 1097.488281 918.472656 1097.488281 C 918.472656 1097.488281 919.671875 1096.964844 920.269531 1096.738281 C 920.871094 1096.441406 922.070312 1095.914062 922.144531 1095.914062 C 922.144531 1095.914062 923.417969 1095.765625 924.09375 1095.613281 C 924.765625 1095.539062 926.042969 1095.316406 926.042969 1095.316406 C 926.042969 1095.316406 927.390625 1095.464844 927.988281 1095.539062 C 928.664062 1095.539062 930.015625 1095.691406 930.015625 1095.691406 C 930.089844 1095.691406 932.710938 1095.839844 933.085938 1095.390625 C 933.3125 1095.242188 933.160156 1094.640625 933.085938 1094.566406 C 933.085938 1094.492188 932.9375 1094.566406 932.9375 1094.566406 C 932.863281 1094.566406 931.664062 1094.042969 930.988281 1093.816406 C 930.390625 1093.589844 929.113281 1093.140625 929.113281 1093.066406 C 929.039062 1093.066406 927.988281 1092.316406 927.390625 1091.941406 C 926.867188 1091.566406 925.742188 1090.816406 925.742188 1090.816406 C 925.742188 1090.816406 924.84375 1089.769531 924.390625 1089.320312 C 923.941406 1088.792969 923.042969 1087.820312 923.042969 1087.746094 C 923.042969 1087.746094 922.367188 1086.546875 922.070312 1085.945312 C 921.769531 1085.347656 921.167969 1084.222656 921.167969 1084.148438 C 921.09375 1084.148438 920.792969 1082.875 920.644531 1082.199219 C 920.496094 1081.523438 920.121094 1080.25 920.121094 1080.25 C 920.121094 1080.175781 920.121094 1078.824219 920.121094 1078.152344 C 920.121094 1077.476562 920.121094 1076.203125 920.121094 1076.128906 C 920.121094 1076.128906 920.496094 1074.851562 920.644531 1074.179688 C 920.792969 1073.503906 921.09375 1072.230469 921.09375 1072.230469 C 921.09375 1072.15625 921.695312 1070.957031 922.070312 1070.355469 C 922.367188 1069.757812 922.96875 1068.632812 922.96875 1068.558594 C 922.96875 1068.558594 923.867188 1067.582031 924.316406 1067.058594 C 924.765625 1066.535156 925.667969 1065.558594 925.667969 1065.558594 C 925.667969 1065.484375 926.789062 1064.734375 927.316406 1064.359375 C 927.914062 1063.984375 928.964844 1063.234375 929.039062 1063.234375 C 929.113281 1063.160156 935.484375 1059.9375 938.933594 1058.8125 C 942.304688 1057.6875 946.203125 1057.464844 949.578125 1056.566406 C 952.574219 1055.738281 955.046875 1054.691406 958.195312 1053.792969 C 961.792969 1052.742188 970.1875 1051.917969 970.1875 1050.71875 C 970.261719 1049.445312 960.894531 1047.871094 955.871094 1046.296875 C 950.476562 1044.648438 942.15625 1042.546875 938.785156 1041.125 C 937.285156 1040.523438 936.683594 1039.925781 935.710938 1039.476562 C 935.035156 1039.101562 934.4375 1038.949219 933.761719 1038.652344 C 933.160156 1038.351562 931.886719 1037.828125 931.8125 1037.828125 C 931.8125 1037.828125 930.6875 1037.003906 930.164062 1036.550781 C 929.5625 1036.175781 928.441406 1035.351562 928.441406 1035.277344 C 928.441406 1035.277344 927.539062 1034.230469 927.089844 1033.703125 C 926.640625 1033.105469 925.816406 1032.054688 925.742188 1032.054688 C 925.742188 1031.980469 925.140625 1030.78125 924.84375 1030.105469 C 924.542969 1029.507812 923.941406 1028.234375 923.941406 1028.234375 C 923.941406 1028.234375 923.644531 1026.882812 923.492188 1026.132812 C 923.34375 1025.460938 923.117188 1024.109375 923.042969 1024.109375 C 923.042969 1024.035156 923.117188 1022.6875 923.117188 1022.011719 C 923.191406 1021.261719 923.191406 1019.914062 923.269531 1019.914062 C 923.269531 1019.914062 923.269531 1019.914062 923.269531 1019.835938 C 923.269531 1019.835938 923.644531 1018.488281 923.792969 1017.8125 C 924.019531 1017.140625 924.390625 1015.867188 924.390625 1015.789062 C 924.390625 1015.789062 925.066406 1014.589844 925.441406 1013.992188 C 925.816406 1013.390625 926.492188 1012.191406 926.492188 1012.117188 C 926.492188 1012.117188 927.464844 1011.144531 927.914062 1010.617188 C 928.441406 1010.09375 929.414062 1009.121094 929.414062 1009.121094 C 929.414062 1009.042969 930.613281 1008.296875 931.214844 1007.921875 C 931.738281 1007.546875 932.9375 1006.796875 932.9375 1006.796875 C 933.011719 1006.796875 934.285156 1006.347656 934.960938 1006.121094 C 935.636719 1005.898438 936.910156 1005.445312 936.984375 1005.445312 C 936.984375 1005.445312 938.332031 1005.371094 939.082031 1005.296875 C 939.757812 1005.222656 941.105469 1005.070312 941.183594 1005.070312 C 941.183594 1005.070312 942.53125 1005.296875 943.28125 1005.445312 C 943.957031 1005.523438 945.304688 1005.746094 945.378906 1005.746094 C 945.453125 1005.746094 963.667969 1007.320312 964.042969 1006.046875 C 964.265625 1005.148438 959.46875 1003.273438 956.695312 1001.472656 C 952.949219 998.925781 948.152344 995.027344 943.503906 992.03125 C 938.785156 988.882812 933.460938 985.359375 928.589844 982.960938 C 924.242188 980.710938 918.546875 979.136719 915.699219 977.789062 C 914.125 977.039062 913.300781 976.664062 912.25 975.914062 C 911.199219 975.164062 910.226562 974.191406 909.402344 973.21875 C 908.503906 972.242188 907.753906 971.117188 907.226562 969.996094 C 906.628906 968.796875 906.179688 967.597656 905.878906 966.320312 C 905.578125 965.046875 905.429688 963.699219 905.503906 962.425781 C 905.503906 961.148438 905.730469 959.800781 906.027344 958.527344 C 906.328125 957.328125 906.855469 956.054688 907.453125 954.929688 C 908.128906 953.804688 908.878906 952.679688 909.777344 951.78125 C 910.601562 950.804688 911.652344 949.90625 912.699219 949.230469 C 913.824219 948.484375 915.023438 947.882812 916.222656 947.433594 C 917.421875 947.058594 918.769531 946.757812 920.046875 946.609375 C 921.320312 946.460938 922.667969 946.460938 923.941406 946.683594 C 925.21875 946.832031 926.117188 947.132812 927.691406 947.660156 C 930.761719 948.707031 936.011719 950.65625 940.65625 952.90625 C 946.429688 955.601562 953.472656 959.726562 959.46875 963.398438 C 965.167969 966.847656 970.261719 971.117188 975.734375 974.191406 C 980.980469 977.113281 986.230469 979.589844 991.550781 981.460938 C 996.648438 983.335938 1001.894531 983.710938 1006.992188 985.507812 C 1012.3125 987.382812 1017.632812 989.632812 1022.730469 992.628906 C 1028.203125 995.851562 1033.300781 1001.097656 1038.546875 1004.472656 C 1043.34375 1007.546875 1047.390625 1010.167969 1052.9375 1012.34375 C 1059.605469 1014.964844 1069.5 1015.941406 1076.246094 1018.265625 C 1081.867188 1020.210938 1086.140625 1022.160156 1091.011719 1024.785156 C 1096.335938 1027.558594 1103.753906 1029.132812 1107.050781 1034.601562 C 1111.472656 1041.949219 1113.5 1062.335938 1109.300781 1068.183594 C 1106.304688 1072.378906 1098.507812 1071.929688 1092.8125 1072.753906 C 1086.890625 1073.578125 1080.292969 1072.304688 1074.371094 1073.128906 C 1068.601562 1073.953125 1058.558594 1076.425781 1057.660156 1077.625 C 1057.433594 1077.851562 1057.660156 1078.226562 1057.660156 1078.226562 C 1057.660156 1078.300781 1057.359375 1079.648438 1057.132812 1080.324219 C 1056.984375 1081 1056.683594 1082.347656 1056.683594 1082.347656 C 1056.683594 1082.421875 1056.085938 1083.621094 1055.710938 1084.296875 C 1055.410156 1084.898438 1054.808594 1086.171875 1054.734375 1086.171875 C 1054.734375 1086.171875 1053.835938 1087.21875 1053.386719 1087.746094 C 1052.9375 1088.269531 1052.035156 1089.320312 1052.035156 1089.394531 C 1051.960938 1089.394531 1050.835938 1090.21875 1050.3125 1090.59375 C 1049.714844 1091.042969 1048.589844 1091.792969 1048.515625 1091.792969 C 1048.515625 1091.867188 1047.238281 1092.316406 1046.566406 1092.617188 C 1045.890625 1092.839844 1044.617188 1093.367188 1044.617188 1093.367188 C 1044.390625 1093.441406 1034.722656 1096.589844 1029.175781 1098.3125 C 1022.804688 1100.1875 1015.160156 1102.359375 1008.5625 1104.085938 C 1002.566406 1105.582031 991.324219 1107.980469 991.324219 1108.058594 C 991.324219 1108.058594 989.902344 1108.132812 989.226562 1108.207031 C 988.550781 1108.28125 987.128906 1108.355469 987.128906 1108.355469 C 987.128906 1108.355469 985.777344 1108.132812 985.027344 1108.058594 C 984.355469 1107.90625 983.003906 1107.757812 983.003906 1107.757812 C 982.929688 1107.683594 981.582031 1107.15625 981.058594 1106.933594 C 980.605469 1106.707031 980.308594 1106.484375 979.859375 1106.410156 C 979.183594 1106.332031 978.285156 1106.707031 977.160156 1106.933594 C 975.210938 1107.308594 969.589844 1106.859375 968.914062 1108.582031 C 967.863281 1111.207031 978.882812 1118.699219 981.058594 1125.222656 C 983.304688 1132.191406 983.90625 1143.359375 981.132812 1149.582031 C 978.734375 1154.976562 969.4375 1159.175781 967.640625 1161.574219 C 967.039062 1162.398438 967.339844 1162.921875 966.742188 1163.523438 C 965.839844 1164.347656 962.394531 1164.570312 962.09375 1165.171875 C 962.019531 1165.472656 962.394531 1165.546875 962.542969 1166.070312 C 963.066406 1168.320312 962.769531 1179.9375 964.042969 1186.234375 C 965.09375 1192.003906 967.039062 1196.875 969.0625 1202.273438 C 971.3125 1208.121094 977.609375 1213.816406 977.085938 1219.886719 C 976.484375 1227.007812 968.390625 1239.824219 962.167969 1242.148438 C 956.921875 1244.097656 947.777344 1240.199219 943.65625 1236.976562 C 940.359375 1234.351562 938.785156 1227.382812 937.734375 1226.109375 C 937.507812 1225.808594 937.433594 1225.882812 937.132812 1225.582031 C 936.535156 1224.832031 934.734375 1221.761719 934.285156 1220.636719 C 934.136719 1220.113281 934.210938 1219.738281 934.0625 1219.363281 C 933.988281 1219.136719 933.835938 1219.0625 933.6875 1218.761719 C 933.613281 1218.3125 933.613281 1217.488281 933.535156 1216.886719 C 933.460938 1216.214844 933.160156 1215.464844 933.160156 1214.941406 C 933.160156 1214.566406 933.3125 1214.339844 933.3125 1214.039062 C 933.3125 1213.664062 933.160156 1213.441406 933.238281 1213.066406 C 933.238281 1212.542969 933.535156 1211.792969 933.6875 1211.191406 C 933.761719 1210.519531 933.761719 1209.769531 933.910156 1209.242188 C 934.0625 1208.867188 934.285156 1208.570312 934.359375 1208.34375 C 934.359375 1208.269531 934.4375 1208.195312 934.4375 1208.121094 C 934.4375 1208.042969 934.359375 1207.894531 934.359375 1207.894531 C 934.285156 1207.894531 934.285156 1207.894531 934.210938 1207.96875 C 933.910156 1208.121094 932.261719 1208.867188 932.261719 1208.945312 C 932.261719 1208.945312 932.261719 1208.945312 932.1875 1208.945312 C 932.1875 1208.945312 930.839844 1209.242188 930.089844 1209.394531 C 929.414062 1209.542969 927.988281 1209.84375 927.988281 1209.84375 C 927.988281 1209.84375 926.566406 1209.769531 925.816406 1209.769531 C 925.066406 1209.691406 923.644531 1209.691406 923.644531 1209.691406 C 923.644531 1209.691406 922.21875 1209.320312 921.542969 1209.09375 C 920.871094 1208.945312 919.519531 1208.492188 919.445312 1208.492188 C 919.445312 1208.492188 918.246094 1207.820312 917.570312 1207.445312 C 916.972656 1207.070312 915.699219 1206.394531 915.699219 1206.394531 C 915.699219 1206.394531 914.648438 1205.421875 914.125 1204.894531 C 913.597656 1204.371094 912.550781 1203.398438 912.550781 1203.398438 C 912.550781 1203.398438 911.726562 1202.199219 911.351562 1201.597656 C 910.976562 1201 910.226562 1199.800781 910.152344 1199.800781 C 910.152344 1199.722656 909.703125 1198.375 909.476562 1197.699219 C 909.253906 1197.027344 908.800781 1195.675781 908.800781 1195.675781 C 908.726562 1195.527344 904.082031 1184.359375 901.53125 1183.308594 C 900.03125 1182.710938 898.910156 1183.984375 896.886719 1184.734375 C 892.386719 1186.308594 882.269531 1189.382812 876.199219 1193.503906 C 870.277344 1197.625 866.078125 1203.847656 860.984375 1209.320312 C 855.660156 1215.089844 847.042969 1224.457031 844.941406 1227.308594 C 844.34375 1228.132812 844.042969 1228.507812 843.96875 1229.03125 C 843.894531 1229.40625 844.34375 1229.554688 844.269531 1230.15625 C 843.816406 1232.855469 836.097656 1245.296875 831.375 1250.691406 C 827.554688 1254.964844 822.382812 1259.761719 819.007812 1260.734375 C 817.058594 1261.261719 815.1875 1259.6875 813.835938 1260.136719 C 812.789062 1260.4375 812.261719 1261.1875 811.289062 1262.234375 C 809.566406 1264.109375 804.992188 1270.929688 804.992188 1270.929688 C 804.992188 1271.003906 804.167969 1272.128906 803.71875 1272.726562 C 803.269531 1273.328125 802.445312 1274.453125 802.445312 1274.453125 C 802.371094 1274.527344 801.320312 1275.425781 800.71875 1275.875 C 800.195312 1276.324219 799.144531 1277.226562 799.070312 1277.300781 C 799.070312 1277.300781 797.796875 1277.898438 797.121094 1278.273438 C 796.449219 1278.574219 795.175781 1279.175781 795.175781 1279.175781 C 795.175781 1279.25 793.75 1279.550781 793.074219 1279.699219 C 792.324219 1279.847656 790.976562 1280.148438 790.902344 1280.148438 C 790.902344 1280.148438 789.476562 1280.074219 788.726562 1280.074219 C 788.054688 1280.074219 786.628906 1280 786.554688 1280 C 786.554688 1280 785.128906 1279.625 784.457031 1279.472656 C 783.78125 1279.25 782.355469 1278.875 782.355469 1278.875 C 782.355469 1278.875 781.082031 1278.125 780.484375 1277.824219 C 779.808594 1277.449219 778.609375 1276.777344 778.535156 1276.777344 C 778.535156 1276.699219 777.484375 1275.726562 776.960938 1275.277344 C 776.4375 1274.753906 775.386719 1273.777344 775.386719 1273.777344 C 775.386719 1273.777344 774.5625 1272.578125 774.1875 1271.980469 C 773.8125 1271.304688 772.988281 1270.179688 772.988281 1270.105469 C 772.988281 1270.105469 772.539062 1268.757812 772.3125 1268.082031 C 772.011719 1267.40625 771.5625 1266.058594 771.5625 1265.984375 C 771.5625 1265.984375 771.414062 1264.558594 771.339844 1263.808594 C 771.265625 1263.132812 771.113281 1261.710938 771.113281 1261.710938 C 771.113281 1261.636719 771.113281 1261.636719 771.113281 1261.636719 C 771.113281 1261.636719 771.339844 1260.210938 771.488281 1259.535156 C 771.5625 1258.9375 771.9375 1258.1875 771.714844 1257.8125 C 771.488281 1257.4375 770.515625 1257.511719 769.914062 1257.363281 C 769.242188 1257.136719 767.890625 1256.839844 767.816406 1256.839844 C 767.816406 1256.761719 766.617188 1256.089844 765.941406 1255.789062 C 765.34375 1255.414062 764.144531 1254.816406 764.144531 1254.738281 C 764.070312 1254.738281 763.09375 1253.839844 762.570312 1253.316406 C 762.042969 1252.867188 760.996094 1251.890625 760.996094 1251.890625 C 760.921875 1251.890625 760.171875 1250.691406 759.796875 1250.167969 C 759.421875 1249.566406 758.597656 1248.367188 758.597656 1248.367188 C 758.597656 1248.367188 758.148438 1247.019531 757.921875 1246.34375 C 757.621094 1245.671875 757.171875 1244.394531 757.171875 1244.394531 C 757.171875 1244.320312 757.023438 1242.972656 756.949219 1242.222656 C 756.875 1241.546875 756.722656 1240.125 756.722656 1240.125 " clip-rule="nonzero"/></clipPath><clipPath id="48a9128ff3"><path d="M 28.128906 298.371094 L 959.648438 298.371094 L 959.648438 1226.265625 L 28.128906 1226.265625 Z M 28.128906 298.371094 " clip-rule="nonzero"/></clipPath><clipPath id="cccb3a3de1"><path d="M 103.082031 298.371094 L 884.066406 298.371094 C 925.464844 298.371094 959.019531 331.929688 959.019531 373.324219 L 959.019531 1151.3125 C 959.019531 1192.710938 925.464844 1226.265625 884.066406 1226.265625 L 103.082031 1226.265625 C 61.6875 1226.265625 28.128906 1192.710938 28.128906 1151.3125 L 28.128906 373.324219 C 28.128906 331.929688 61.6875 298.371094 103.082031 298.371094 Z M 103.082031 298.371094 " clip-rule="nonzero"/></clipPath><clipPath id="7edfd51825"><path d="M 28.128906 298.371094 L 957 298.371094 L 957 1227 L 28.128906 1227 Z M 28.128906 298.371094 " clip-rule="nonzero"/></clipPath><clipPath id="e808893217"><path d="M 225 456 L 1161.414062 456 L 1161.414062 1385.1875 L 225 1385.1875 Z M 225 456 " clip-rule="nonzero"/></clipPath><clipPath id="59a8a22a41"><path d="M 901.433594 1013 L 1015.808594 1013 L 1015.808594 1121.578125 L 901.433594 1121.578125 Z M 901.433594 1013 " clip-rule="nonzero"/></clipPath><clipPath id="f9e7fe1f9e"><path d="M 959.09375 1109.78125 C 979.78125 1100.710938 985.855469 1098.3125 989.675781 1095.316406 C 992.597656 1093.066406 993.875 1089.394531 996.496094 1087.746094 C 998.820312 1086.320312 1004.21875 1085.273438 1004.292969 1085.421875 C 1004.367188 1085.722656 984.054688 1093.367188 972.8125 1098.238281 C 959.46875 1104.007812 937.507812 1116.902344 929.5625 1118.101562 C 926.714844 1118.476562 924.992188 1118.101562 923.492188 1117.203125 C 922.367188 1116.527344 921.46875 1115.175781 921.167969 1113.976562 C 920.871094 1112.777344 920.792969 1111.578125 921.542969 1110.007812 C 923.34375 1106.257812 932.1875 1099.363281 937.808594 1094.566406 C 943.28125 1089.84375 950.101562 1085.722656 954.972656 1081.449219 C 958.871094 1078 961.71875 1074.253906 965.015625 1071.332031 C 967.863281 1068.78125 970.5625 1064.882812 973.335938 1064.507812 C 975.808594 1064.210938 980.980469 1067.28125 980.90625 1067.957031 C 980.757812 1068.78125 975.285156 1068.03125 971.6875 1068.933594 C 965.917969 1070.355469 957.070312 1074.554688 950.25 1077.550781 C 943.957031 1080.398438 937.882812 1084.746094 932.335938 1086.394531 C 927.988281 1087.671875 923.117188 1088.871094 919.96875 1087.820312 C 917.347656 1086.921875 915.097656 1084.445312 913.972656 1081.972656 C 912.773438 1079.273438 912.851562 1075.378906 913.300781 1071.929688 C 913.824219 1068.183594 915.847656 1063.683594 917.273438 1060.386719 C 918.394531 1057.765625 919.371094 1055.816406 920.792969 1053.566406 C 922.21875 1051.316406 924.167969 1048.320312 925.816406 1047.121094 C 926.714844 1046.445312 927.617188 1046.222656 928.515625 1046.144531 C 929.488281 1046.070312 930.539062 1046.222656 931.4375 1046.597656 C 932.335938 1046.894531 933.238281 1047.570312 933.835938 1048.246094 C 934.4375 1048.996094 934.960938 1049.894531 935.1875 1050.867188 C 935.335938 1052.140625 935.410156 1054.089844 934.585938 1055.214844 C 933.460938 1056.640625 930.839844 1057.164062 928.363281 1057.988281 C 924.84375 1059.261719 918.394531 1062.335938 915.25 1061.4375 C 912.925781 1060.761719 912.023438 1058.4375 910.300781 1056.113281 C 907.679688 1052.515625 903.179688 1045.996094 902.207031 1041.125 C 901.382812 1037.078125 901.757812 1032.28125 903.332031 1029.355469 C 904.679688 1026.882812 907.152344 1025.308594 909.925781 1024.183594 C 913.375 1022.761719 917.046875 1022.761719 922.894531 1022.609375 C 934.8125 1022.386719 961.644531 1025.835938 977.535156 1026.734375 C 989.828125 1027.484375 1005.566406 1027.332031 1010.363281 1028.082031 C 1011.710938 1028.308594 1012.164062 1028.457031 1012.988281 1028.832031 C 1013.734375 1029.28125 1014.484375 1029.882812 1014.933594 1030.707031 C 1015.460938 1031.753906 1015.910156 1033.480469 1015.761719 1034.679688 C 1015.535156 1035.953125 1015.011719 1037.152344 1013.734375 1038.203125 C 1011.414062 1040.148438 1005.792969 1041.722656 1000.542969 1042.847656 C 993.125 1044.421875 980.832031 1045.695312 973.113281 1045.171875 C 967.339844 1044.722656 962.84375 1042.847656 958.195312 1041.722656 C 954.148438 1040.675781 950.25 1040.074219 946.953125 1038.574219 C 943.878906 1037.152344 941.03125 1035.578125 938.785156 1033.03125 C 936.234375 1030.179688 932.488281 1025.085938 933.085938 1021.9375 C 933.6875 1018.789062 938.933594 1015.265625 942.082031 1013.992188 C 944.703125 1012.867188 947.101562 1012.867188 950.25 1013.316406 C 955.125 1014.066406 963.21875 1017.140625 968.089844 1020.210938 C 972.210938 1022.835938 976.257812 1027.109375 978.058594 1029.65625 C 979.109375 1031.003906 979.707031 1032.054688 979.859375 1033.328125 C 980.007812 1034.601562 979.484375 1036.328125 979.03125 1037.300781 C 978.734375 1037.976562 978.359375 1038.425781 977.757812 1038.875 C 976.859375 1039.550781 975.285156 1040.375 974.011719 1040.449219 C 972.660156 1040.523438 971.011719 1039.925781 970.039062 1039.402344 C 969.363281 1039.027344 968.988281 1038.652344 968.539062 1038.050781 C 967.941406 1037.078125 967.191406 1035.503906 967.191406 1034.152344 C 967.191406 1032.878906 967.640625 1031.378906 968.390625 1030.332031 C 969.214844 1029.28125 970.714844 1028.382812 971.761719 1028.007812 C 972.511719 1027.707031 973.035156 1027.632812 973.785156 1027.707031 C 974.910156 1027.859375 976.710938 1028.53125 977.609375 1029.207031 C 978.207031 1029.65625 978.582031 1030.03125 978.957031 1030.707031 C 979.40625 1031.679688 980.007812 1033.402344 979.859375 1034.679688 C 979.78125 1035.953125 979.109375 1037.453125 978.207031 1038.425781 C 977.382812 1039.324219 975.960938 1040.148438 974.6875 1040.375 C 973.410156 1040.601562 972.0625 1040.523438 970.636719 1039.773438 C 968.238281 1038.5 965.917969 1033.628906 962.769531 1031.304688 C 959.320312 1028.832031 954.222656 1026.582031 950.476562 1025.460938 C 947.628906 1024.558594 942.605469 1023.886719 942.457031 1024.335938 C 942.304688 1024.785156 946.804688 1026.957031 950.175781 1028.15625 C 955.574219 1030.257812 964.941406 1033.402344 972.660156 1034.078125 C 980.457031 1034.828125 989.601562 1033.328125 996.648438 1032.128906 C 1002.269531 1031.230469 1008.640625 1027.707031 1011.710938 1028.308594 C 1013.285156 1028.605469 1014.261719 1029.804688 1014.933594 1030.707031 C 1015.460938 1031.53125 1015.761719 1032.355469 1015.761719 1033.328125 C 1015.835938 1034.453125 1015.308594 1036.253906 1014.710938 1037.226562 C 1014.1875 1037.976562 1013.359375 1038.574219 1012.613281 1038.949219 C 1011.789062 1039.324219 1011.335938 1039.324219 1009.914062 1039.476562 C 1005.042969 1039.851562 989.078125 1038.726562 976.710938 1038.125 C 961.195312 1037.375 934.886719 1034.902344 924.09375 1035.128906 C 919.296875 1035.277344 914.648438 1034.453125 913.675781 1036.175781 C 912.773438 1037.828125 915.921875 1042.546875 917.722656 1044.796875 C 919.371094 1046.820312 922.070312 1049.371094 923.792969 1049.292969 C 925.066406 1049.292969 925.964844 1046.96875 927.089844 1046.445312 C 928.066406 1046.070312 929.113281 1046.070312 930.015625 1046.144531 C 930.988281 1046.296875 931.960938 1046.597656 932.789062 1047.269531 C 933.6875 1048.09375 934.886719 1049.59375 935.1875 1050.867188 C 935.484375 1052.21875 935.1875 1053.566406 934.585938 1055.214844 C 933.535156 1057.839844 929.5625 1060.988281 928.363281 1064.433594 C 927.089844 1068.105469 925.589844 1075.304688 927.464844 1076.503906 C 929.9375 1078.152344 939.382812 1070.132812 945.980469 1067.132812 C 953.324219 1063.761719 962.691406 1058.738281 969.664062 1057.3125 C 974.835938 1056.265625 980.980469 1054.914062 983.605469 1057.015625 C 985.929688 1058.964844 986.976562 1064.734375 985.777344 1068.03125 C 984.28125 1072.15625 976.632812 1075.003906 972.4375 1078.75 C 968.539062 1082.273438 965.617188 1086.171875 961.417969 1089.84375 C 956.695312 1094.117188 950.550781 1097.9375 945.230469 1102.511719 C 939.609375 1107.234375 932.5625 1116.152344 928.738281 1117.726562 C 927.089844 1118.402344 925.816406 1118.175781 924.765625 1117.800781 C 923.867188 1117.578125 923.042969 1116.976562 922.519531 1116.378906 C 921.917969 1115.703125 921.394531 1114.953125 921.167969 1113.976562 C 920.945312 1112.855469 921.09375 1111.054688 921.542969 1110.007812 C 921.917969 1109.179688 922.742188 1108.433594 923.269531 1107.980469 C 923.644531 1107.609375 924.019531 1107.382812 924.46875 1107.308594 C 925.066406 1107.15625 925.816406 1107.832031 926.714844 1107.683594 C 928.363281 1107.53125 930.761719 1106.183594 933.3125 1104.984375 C 937.210938 1103.109375 942.304688 1099.886719 947.628906 1097.265625 C 953.847656 1094.117188 961.269531 1090.816406 968.613281 1087.671875 C 976.484375 1084.222656 986.828125 1079.425781 993.574219 1077.476562 C 997.921875 1076.203125 1001.59375 1074.476562 1004.515625 1075.453125 C 1007.214844 1076.277344 1010.136719 1079.648438 1010.738281 1082.125 C 1011.261719 1084.296875 1009.839844 1086.996094 1008.789062 1089.242188 C 1007.816406 1091.417969 1006.390625 1093.140625 1004.515625 1095.316406 C 1002.117188 1098.3125 998.820312 1102.136719 994.996094 1105.058594 C 990.652344 1108.355469 984.65625 1110.90625 979.40625 1113.527344 C 974.3125 1116.152344 967.039062 1119.675781 963.96875 1120.722656 C 962.691406 1121.097656 962.09375 1121.324219 961.121094 1121.175781 C 959.921875 1121.023438 958.195312 1120.347656 957.296875 1119.449219 C 956.324219 1118.476562 955.648438 1116.902344 955.574219 1115.550781 C 955.496094 1114.203125 956.097656 1112.480469 956.847656 1111.503906 C 957.371094 1110.679688 959.09375 1109.78125 959.09375 1109.78125 " clip-rule="nonzero"/></clipPath><clipPath id="a6245df874"><path d="M 838.5625 988.195312 L 1003.609375 988.195312 L 1003.609375 1106.644531 L 838.5625 1106.644531 Z M 838.5625 988.195312 " clip-rule="nonzero"/></clipPath><clipPath id="86a89d5523"><path d="M 932.039062 1075.828125 C 971.460938 1070.507812 977.910156 1069.082031 981.429688 1067.808594 C 983.230469 1067.207031 983.828125 1066.308594 985.402344 1066.007812 C 987.351562 1065.558594 990.277344 1065.558594 992.449219 1066.160156 C 994.699219 1066.757812 996.945312 1067.957031 998.671875 1069.53125 C 1000.320312 1071.105469 1001.820312 1073.652344 1002.566406 1075.453125 C 1003.09375 1076.726562 1003.316406 1077.550781 1003.316406 1078.902344 C 1003.394531 1080.847656 1003.242188 1083.773438 1002.34375 1085.871094 C 1001.519531 1088.042969 999.644531 1090.292969 998.222656 1091.640625 C 997.246094 1092.617188 996.347656 1093.066406 995.222656 1093.589844 C 994.171875 1094.117188 993.5 1094.566406 991.925781 1094.789062 C 987.953125 1095.464844 978.808594 1093.890625 971.238281 1094.339844 C 961.945312 1094.789062 949.652344 1096.8125 940.28125 1098.3125 C 932.488281 1099.585938 926.566406 1102.359375 918.921875 1102.585938 C 910.226562 1102.808594 898.308594 1102.886719 890.886719 1098.464844 C 883.617188 1094.191406 878.070312 1084.222656 874.773438 1076.953125 C 872 1070.878906 870.203125 1064.507812 870.726562 1058.589844 C 871.25 1052.742188 873.875 1045.921875 877.847656 1041.722656 C 881.894531 1037.453125 887.367188 1035.128906 894.9375 1033.328125 C 907.679688 1030.257812 934.359375 1032.128906 948.753906 1032.65625 C 958.421875 1033.03125 968.464844 1033.777344 973.035156 1034.828125 C 974.835938 1035.203125 975.433594 1035.429688 976.710938 1036.253906 C 978.582031 1037.300781 981.207031 1039.324219 982.628906 1041.425781 C 984.128906 1043.523438 985.105469 1046.746094 985.480469 1048.84375 C 985.777344 1050.34375 985.777344 1051.316406 985.480469 1052.816406 C 985.105469 1054.914062 984.128906 1058.136719 982.707031 1060.238281 C 981.207031 1062.335938 979.632812 1063.835938 976.785156 1065.484375 C 971.539062 1068.480469 960.820312 1072.078125 951.976562 1073.355469 C 942.304688 1074.703125 930.015625 1074.179688 921.019531 1072.53125 C 913.675781 1071.179688 908.800781 1069.007812 901.457031 1065.707031 C 891.261719 1061.0625 875.296875 1051.242188 866.152344 1045.621094 C 860.15625 1041.949219 855.734375 1039.175781 851.613281 1035.953125 C 848.242188 1033.328125 844.792969 1030.105469 842.84375 1028.007812 C 841.792969 1026.808594 841.269531 1026.207031 840.59375 1024.859375 C 839.695312 1022.984375 838.722656 1019.914062 838.648438 1017.4375 C 838.570312 1014.964844 839.246094 1012.191406 840.371094 1010.019531 C 841.496094 1007.769531 843.667969 1005.523438 845.316406 1004.171875 C 846.441406 1003.273438 847.265625 1002.824219 848.691406 1002.375 C 850.714844 1001.699219 853.785156 1001.023438 856.261719 1001.25 C 858.734375 1001.550781 860.53125 1003.949219 863.457031 1003.871094 C 868.476562 1003.796875 876.347656 997.652344 883.242188 995.851562 C 890.363281 993.980469 898.832031 994.503906 905.578125 993.078125 C 911.277344 991.878906 915.699219 988.132812 921.09375 988.28125 C 927.015625 988.433594 934.660156 991.429688 939.457031 995.101562 C 943.957031 998.476562 947.703125 1005.222656 949.5 1008.820312 C 950.476562 1010.84375 950.777344 1012.191406 951 1013.992188 C 951.226562 1015.714844 951.152344 1017.664062 950.777344 1019.386719 C 950.476562 1021.113281 949.800781 1022.835938 948.902344 1024.410156 C 948.003906 1025.910156 946.804688 1027.40625 945.453125 1028.605469 C 944.105469 1029.730469 942.53125 1030.707031 940.882812 1031.457031 C 939.234375 1032.128906 937.433594 1032.578125 935.636719 1032.65625 C 933.910156 1032.804688 932.039062 1032.65625 930.3125 1032.203125 C 928.589844 1031.753906 926.867188 1031.003906 925.367188 1030.03125 C 923.867188 1029.058594 922.519531 1027.78125 921.394531 1026.359375 C 920.269531 1024.933594 919.371094 1023.285156 918.769531 1021.636719 C 918.171875 1019.988281 917.871094 1018.113281 917.796875 1016.316406 C 917.796875 1014.589844 918.097656 1012.71875 918.621094 1010.992188 C 919.144531 1009.34375 919.96875 1007.621094 921.019531 1006.195312 C 922.070312 1004.773438 923.417969 1003.421875 924.917969 1002.449219 C 926.339844 1001.398438 928.066406 1000.574219 929.789062 1000.125 C 931.4375 999.601562 933.3125 999.375 935.109375 999.449219 C 936.835938 999.449219 938.707031 999.824219 940.359375 1000.5 C 942.007812 1001.097656 943.65625 1002.074219 945.078125 1003.199219 C 946.429688 1004.324219 947.628906 1005.746094 948.601562 1007.246094 C 949.578125 1008.746094 950.25 1010.46875 950.699219 1012.191406 C 951.074219 1013.917969 951.226562 1015.789062 951.074219 1017.589844 C 950.925781 1019.3125 950.402344 1021.1875 949.726562 1022.835938 C 948.976562 1024.410156 947.925781 1025.984375 946.726562 1027.332031 C 945.527344 1028.605469 944.105469 1029.804688 942.53125 1030.632812 C 940.957031 1031.53125 939.15625 1032.128906 937.433594 1032.429688 C 935.710938 1032.730469 933.835938 1032.804688 932.039062 1032.503906 C 930.3125 1032.28125 928.515625 1031.679688 926.941406 1030.929688 C 925.367188 1030.105469 923.792969 1028.980469 922.59375 1027.707031 C 921.320312 1026.433594 921.46875 1024.183594 919.519531 1023.285156 C 914.574219 1021.113281 896.660156 1026.808594 886.992188 1027.484375 C 879.347656 1027.933594 873.125 1027.035156 866.230469 1027.558594 C 859.332031 1028.007812 850.113281 1032.054688 845.765625 1030.480469 C 843.144531 1029.582031 841.792969 1027.035156 840.59375 1024.859375 C 839.394531 1022.6875 838.796875 1019.539062 838.648438 1017.4375 C 838.496094 1016.015625 838.648438 1015.039062 839.019531 1013.617188 C 839.621094 1011.667969 840.894531 1008.667969 842.46875 1006.796875 C 844.117188 1004.921875 846.367188 1003.273438 848.691406 1002.375 C 851.015625 1001.398438 853.785156 1001.023438 856.261719 1001.25 C 858.734375 1001.550781 860.683594 1002.300781 863.457031 1003.871094 C 868.402344 1006.570312 874.921875 1013.390625 882.042969 1018.039062 C 890.8125 1023.808594 903.105469 1031.15625 912.773438 1035.054688 C 920.570312 1038.277344 927.839844 1040.148438 935.109375 1041.125 C 941.632812 1042.097656 948.300781 1042.625 954.148438 1041.347656 C 959.546875 1040.148438 964.867188 1034.753906 969.0625 1034.304688 C 971.988281 1034.003906 974.460938 1035.054688 976.710938 1036.253906 C 979.03125 1037.375 981.355469 1039.773438 982.628906 1041.425781 C 983.605469 1042.625 984.054688 1043.523438 984.503906 1044.945312 C 985.179688 1047.046875 985.628906 1050.644531 985.480469 1052.816406 C 985.402344 1054.316406 985.179688 1055.289062 984.503906 1056.714844 C 983.605469 1058.664062 981.957031 1061.511719 980.007812 1063.234375 C 978.132812 1064.882812 975.0625 1066.234375 973.035156 1066.90625 C 971.613281 1067.359375 970.9375 1067.359375 969.0625 1067.359375 C 964.941406 1067.433594 956.097656 1065.933594 948.828125 1065.632812 C 940.28125 1065.257812 929.191406 1067.132812 921.09375 1065.785156 C 914.347656 1064.660156 904.15625 1058.214844 903.332031 1059.488281 C 902.582031 1060.613281 909.175781 1070.054688 914.875 1072.078125 C 923.566406 1075.078125 940.957031 1066.984375 953.925781 1066.007812 C 966.816406 1065.035156 986.679688 1065.035156 992.449219 1066.160156 C 994.25 1066.457031 994.625 1066.757812 995.746094 1067.433594 C 997.394531 1068.480469 999.71875 1070.355469 1000.996094 1072.230469 C 1002.195312 1074.179688 1003.09375 1076.652344 1003.316406 1078.902344 C 1003.542969 1081.148438 1003.242188 1083.773438 1002.34375 1085.871094 C 1001.519531 1088.042969 1000.167969 1089.992188 998.222656 1091.640625 C 995.746094 1093.667969 992 1095.015625 987.953125 1096.289062 C 982.78125 1098.011719 976.558594 1098.914062 969.589844 1100.335938 C 960.21875 1102.210938 943.957031 1106.183594 936.910156 1106.558594 C 933.535156 1106.707031 931.738281 1106.632812 929.488281 1105.882812 C 927.242188 1105.132812 924.691406 1103.261719 923.269531 1101.910156 C 922.144531 1100.9375 921.621094 1100.1875 921.019531 1098.914062 C 920.121094 1097.039062 919.070312 1094.117188 918.996094 1091.71875 C 918.847656 1089.320312 919.746094 1086.320312 920.496094 1084.445312 C 921.019531 1083.171875 921.542969 1082.347656 922.519531 1081.300781 C 923.867188 1079.800781 926.640625 1077.777344 928.441406 1076.875 C 929.714844 1076.203125 932.039062 1075.828125 932.039062 1075.828125 " clip-rule="nonzero"/></clipPath><clipPath id="828a132154"><path d="M 894.265625 954.632812 L 972.957031 954.632812 L 972.957031 1028 L 894.265625 1028 Z M 894.265625 954.632812 " clip-rule="nonzero"/></clipPath><clipPath id="6b4ae4bce8"><path d="M 894.488281 1002.972656 C 894.636719 997.800781 894.9375 996.527344 895.386719 995.328125 C 895.835938 994.128906 896.433594 992.929688 897.183594 991.878906 C 897.933594 990.832031 898.832031 989.855469 899.734375 988.957031 C 900.707031 988.132812 901.90625 987.308594 902.957031 986.785156 C 903.855469 986.332031 904.90625 986.183594 905.578125 985.808594 C 906.105469 985.507812 906.328125 985.132812 906.777344 984.761719 C 907.226562 984.386719 908.277344 983.484375 908.277344 983.484375 C 908.351562 983.484375 909.476562 982.886719 910.078125 982.585938 C 910.675781 982.285156 911.875 981.761719 911.875 981.761719 C 911.875 981.6875 913.222656 981.460938 913.824219 981.3125 C 914.5 981.164062 915.773438 980.863281 915.773438 980.863281 C 915.847656 980.863281 917.273438 980.9375 917.796875 980.9375 C 918.097656 980.9375 918.320312 981.164062 918.621094 980.9375 C 919.894531 979.886719 918.996094 966.621094 922.292969 962.273438 C 925.367188 958.152344 931.886719 955.304688 936.984375 954.855469 C 942.082031 954.328125 948.003906 956.503906 953.023438 959.425781 C 958.871094 962.875 966.816406 972.46875 969.0625 975.316406 C 969.738281 976.214844 969.890625 976.589844 970.261719 977.265625 C 970.5625 977.789062 970.636719 978.390625 970.9375 978.988281 C 971.164062 979.511719 971.613281 980.113281 971.761719 980.636719 C 971.914062 980.9375 971.835938 981.238281 971.914062 981.535156 C 971.988281 981.835938 972.210938 982.0625 972.289062 982.4375 C 972.363281 982.886719 972.289062 983.636719 972.363281 984.234375 C 972.4375 984.910156 972.660156 985.585938 972.660156 986.109375 C 972.660156 986.484375 972.511719 986.707031 972.511719 987.007812 C 972.511719 987.308594 972.585938 987.609375 972.585938 987.984375 C 972.511719 988.433594 972.210938 989.105469 972.0625 989.707031 C 971.914062 990.304688 971.914062 991.054688 971.761719 991.582031 C 971.613281 991.878906 971.386719 992.105469 971.3125 992.40625 C 971.164062 992.703125 971.164062 992.929688 971.011719 993.304688 C 970.863281 993.753906 970.339844 994.277344 969.964844 994.804688 C 969.664062 995.328125 969.4375 996.078125 969.140625 996.453125 C 968.914062 996.753906 968.613281 996.828125 968.464844 997.128906 C 968.238281 997.351562 968.164062 997.578125 967.941406 997.875 C 967.566406 998.25 966.890625 998.550781 966.441406 999 C 965.917969 999.375 965.464844 999.976562 965.09375 1000.273438 C 964.867188 1000.425781 964.566406 1000.351562 964.492188 1000.5 C 964.34375 1000.800781 964.71875 1001.773438 964.792969 1001.773438 C 964.792969 1001.773438 964.71875 1003.125 964.71875 1003.722656 C 964.71875 1004.246094 964.640625 1004.472656 964.71875 1005.070312 C 964.941406 1006.570312 967.640625 1009.644531 967.117188 1012.34375 C 966.292969 1016.765625 959.320312 1026.734375 954 1027.859375 C 948.527344 1028.90625 939.757812 1019.539062 934.511719 1017.964844 C 931.289062 1016.988281 929.488281 1017.140625 926.265625 1016.988281 C 921.84375 1016.765625 913.898438 1017.363281 910.453125 1017.140625 C 908.726562 1017.066406 907.828125 1016.988281 906.554688 1016.691406 C 905.355469 1016.390625 904.082031 1015.867188 902.957031 1015.265625 C 901.832031 1014.667969 900.707031 1013.917969 899.734375 1013.09375 C 898.832031 1012.265625 897.933594 1011.21875 897.183594 1010.167969 C 896.433594 1009.121094 895.835938 1007.921875 895.386719 1006.722656 C 894.9375 1005.523438 894.488281 1002.972656 894.488281 1002.972656 " clip-rule="nonzero"/></clipPath></defs><g clip-path="url(#cab502a9aa)"><g clip-path="url(#19c7f9d298)"><path fill="#771bfa" d="M 963.96875 1128.894531 L 1106.226562 1128.894531 L 1106.226562 1359.511719 L 963.96875 1359.511719 Z M 963.96875 1128.894531 " fill-opacity="1" fill-rule="nonzero"/></g></g><g clip-path="url(#d2676d1a8a)"><g clip-path="url(#3a8f8942f4)"><path fill="#771bfa" d="M 936.234375 1140.136719 L 1059.90625 1140.136719 L 1059.90625 1354.628906 L 936.234375 1354.628906 Z M 936.234375 1140.136719 " fill-opacity="1" fill-rule="nonzero"/></g></g><g clip-path="url(#afa1b1902d)"><g clip-path="url(#5ca66837a5)"><path fill="#771bfa" d="M 753.726562 943.609375 L 1112.300781 943.609375 L 1112.300781 1283.46875 L 753.726562 1283.46875 Z M 753.726562 943.609375 " fill-opacity="1" fill-rule="nonzero"/></g></g><g clip-path="url(#48a9128ff3)"><g clip-path="url(#cccb3a3de1)"><path fill="#771bfa" d="M 28.128906 298.371094 L 959.648438 298.371094 L 959.648438 1226.265625 L 28.128906 1226.265625 Z M 28.128906 298.371094 " fill-opacity="1" fill-rule="nonzero"/></g></g><g clip-path="url(#7edfd51825)"><path fill="#ffffff" d="M 672.835938 1198.222656 L 153.675781 1198.222656 C 100.222656 1198.222656 56.726562 1154.746094 56.726562 1101.292969 L 56.726562 423.734375 C 56.726562 370.285156 100.222656 326.796875 153.675781 326.796875 L 831.222656 326.796875 C 884.675781 326.796875 928.164062 370.285156 928.164062 423.734375 L 928.164062 836.5 C 928.164062 844.328125 934.519531 850.6875 942.351562 850.6875 C 950.1875 850.6875 956.535156 844.328125 956.535156 836.5 L 956.535156 423.734375 C 956.535156 354.636719 900.320312 298.421875 831.222656 298.421875 L 153.675781 298.421875 C 84.574219 298.421875 28.359375 354.636719 28.359375 423.734375 L 28.359375 1101.292969 C 28.359375 1170.390625 84.574219 1226.605469 153.675781 1226.605469 L 672.835938 1226.605469 C 680.664062 1226.605469 687.015625 1220.25 687.015625 1212.421875 C 687.015625 1204.589844 680.664062 1198.222656 672.835938 1198.222656 " fill-opacity="1" fill-rule="nonzero"/></g><g clip-path="url(#e808893217)"><path fill="#ffffff" d="M 977.230469 1113.46875 C 973.398438 1115.164062 970.507812 1118.480469 969.351562 1122.519531 C 968.1875 1126.539062 968.867188 1130.882812 971.207031 1134.355469 L 1090.753906 1312.054688 L 1032.527344 1351.230469 L 912.980469 1173.53125 C 910.640625 1170.058594 906.878906 1167.785156 902.710938 1167.339844 C 902.207031 1167.292969 901.703125 1167.253906 901.210938 1167.253906 C 897.558594 1167.253906 894.023438 1168.683594 891.367188 1171.230469 L 782.324219 1276.414062 L 719.949219 823.726562 L 1115.742188 1052.097656 Z M 692.699219 741.148438 L 613.898438 741.148438 L 626.375 671.734375 L 709.761719 671.734375 Z M 671.257812 828.445312 L 598.199219 828.445312 L 608.792969 769.535156 L 685.730469 769.535156 Z M 585.070312 741.148438 L 510.609375 741.148438 L 510.609375 671.734375 L 597.558594 671.734375 Z M 569.371094 828.445312 L 510.609375 828.445312 L 510.609375 769.535156 L 579.964844 769.535156 Z M 482.246094 643.351562 L 395.148438 643.351562 L 383.339844 577.738281 L 482.246094 577.738281 Z M 482.246094 741.148438 L 412.730469 741.148438 L 400.242188 671.734375 L 482.246094 671.734375 Z M 482.246094 828.445312 L 428.429688 828.445312 L 417.835938 769.535156 L 482.246094 769.535156 Z M 331.035156 828.445312 L 314.007812 769.535156 L 389.007812 769.535156 L 399.601562 828.445312 Z M 305.800781 741.148438 L 285.75 671.734375 L 371.425781 671.734375 L 383.902344 741.148438 Z M 258.582031 577.738281 L 354.523438 577.738281 L 366.320312 643.351562 L 277.535156 643.351562 Z M 510.609375 577.738281 L 614.460938 577.738281 L 602.652344 643.351562 L 510.609375 643.351562 Z M 643.277344 577.738281 L 732.863281 577.738281 L 716.742188 643.351562 L 631.480469 643.351562 Z M 629.03125 1056.027344 C 616.425781 1056.027344 606.175781 1045.78125 606.175781 1033.171875 C 606.175781 1020.566406 616.425781 1010.316406 629.03125 1010.316406 C 641.640625 1010.316406 651.898438 1020.566406 651.898438 1033.171875 C 651.898438 1045.78125 641.640625 1056.027344 629.03125 1056.027344 Z M 342.765625 1056.027344 C 330.167969 1056.027344 319.898438 1045.78125 319.898438 1033.171875 C 319.898438 1020.566406 330.167969 1010.316406 342.765625 1010.316406 C 355.371094 1010.316406 365.628906 1020.566406 365.628906 1033.171875 C 365.628906 1045.78125 355.371094 1056.027344 342.765625 1056.027344 Z M 1154.097656 1041.464844 L 710.957031 785.785156 L 779.390625 507.265625 C 782.691406 493.878906 794.617188 484.53125 808.398438 484.53125 L 859.902344 484.53125 C 867.742188 484.53125 874.089844 478.171875 874.089844 470.34375 C 874.089844 462.515625 867.742188 456.15625 859.902344 456.15625 L 808.398438 456.15625 C 781.515625 456.15625 758.265625 474.390625 751.835938 500.496094 L 739.832031 549.355469 L 239.714844 549.355469 C 235.25 549.355469 231.054688 551.457031 228.371094 555.019531 C 225.695312 558.585938 224.847656 563.195312 226.082031 567.488281 L 306.738281 846.570312 C 308.496094 852.640625 314.054688 856.816406 320.375 856.816406 L 664.277344 856.816406 L 633.683594 981.339844 L 347.257812 981.339844 C 345.84375 981.339844 344.472656 981.558594 343.179688 981.945312 C 343.042969 981.945312 342.914062 981.933594 342.765625 981.933594 C 314.519531 981.933594 291.535156 1004.917969 291.535156 1033.171875 C 291.535156 1061.417969 314.519531 1084.410156 342.765625 1084.410156 C 371.019531 1084.410156 393.992188 1061.417969 393.992188 1033.171875 C 393.992188 1024.722656 391.929688 1016.753906 388.296875 1009.726562 L 583.5 1009.726562 C 579.867188 1016.753906 577.804688 1024.722656 577.804688 1033.171875 C 577.804688 1061.417969 600.785156 1084.410156 629.03125 1084.410156 C 657.277344 1084.410156 680.261719 1061.417969 680.261719 1033.171875 C 680.261719 1016.617188 672.363281 1001.886719 660.152344 992.507812 L 695.019531 850.636719 L 758.027344 1307.9375 C 758.757812 1313.21875 762.390625 1317.652344 767.425781 1319.398438 C 772.472656 1321.117188 778.078125 1319.921875 781.929688 1316.210938 L 898.878906 1203.398438 L 1016.898438 1378.832031 C 1019.644531 1382.902344 1024.113281 1385.101562 1028.6875 1385.101562 C 1031.410156 1385.101562 1034.15625 1384.324219 1036.59375 1382.683594 L 1118.359375 1327.683594 C 1121.480469 1325.582031 1123.640625 1322.332031 1124.363281 1318.628906 C 1125.082031 1314.949219 1124.3125 1311.117188 1122.210938 1307.996094 L 1004.191406 1132.558594 L 1152.746094 1066.730469 C 1157.632812 1064.558594 1160.890625 1059.839844 1161.175781 1054.507812 C 1161.453125 1049.175781 1158.71875 1044.140625 1154.097656 1041.464844 " fill-opacity="1" fill-rule="nonzero"/></g><g clip-path="url(#59a8a22a41)"><g clip-path="url(#f9e7fe1f9e)"><path fill="#771bfa" d="M 899.207031 1010.320312 L 1018.921875 1010.320312 L 1018.921875 1124.246094 L 899.207031 1124.246094 Z M 899.207031 1010.320312 " fill-opacity="1" fill-rule="nonzero"/></g></g><g clip-path="url(#a6245df874)"><g clip-path="url(#86a89d5523)"><path fill="#771bfa" d="M 835.648438 985.285156 L 1006.523438 985.285156 L 1006.523438 1109.554688 L 835.648438 1109.554688 Z M 835.648438 985.285156 " fill-opacity="1" fill-rule="nonzero"/></g></g><g clip-path="url(#828a132154)"><g clip-path="url(#6b4ae4bce8)"><path fill="#771bfa" d="M 891.488281 951.855469 L 975.734375 951.855469 L 975.734375 1030.855469 L 891.488281 1030.855469 Z M 891.488281 951.855469 " fill-opacity="1" fill-rule="nonzero"/></g></g></svg>